<svg xmlns="http://www.w3.org/2000/svg" xmlns:xlink="http://www.w3.org/1999/xlink" width="1024" zoomAndPan="magnify" viewBox="0 0 768 767.999994" height="1024" preserveAspectRatio="xMidYMid meet" version="1.0"><defs><g/><clipPath id="81008d1892"><path d="M 180.6875 60.765625 L 510.421875 60.765625 L 510.421875 84.21875 L 180.6875 84.21875 Z M 180.6875 60.765625 " clip-rule="nonzero"/></clipPath><clipPath id="e5303fbe4e"><path d="M 180.6875 98.519531 L 510.421875 98.519531 L 510.421875 121.972656 L 180.6875 121.972656 Z M 180.6875 98.519531 " clip-rule="nonzero"/></clipPath><clipPath id="29136bc54b"><path d="M 180.6875 136.222656 L 510.421875 136.222656 L 510.421875 159.675781 L 180.6875 159.675781 Z M 180.6875 136.222656 " clip-rule="nonzero"/></clipPath><clipPath id="3da40f7175"><path d="M 180.6875 173.925781 L 587.679688 173.925781 L 587.679688 197.378906 L 180.6875 197.378906 Z M 180.6875 173.925781 " clip-rule="nonzero"/></clipPath><clipPath id="f270852ad3"><path d="M 180.503906 211.628906 L 587.496094 211.628906 L 587.496094 235.082031 L 180.503906 235.082031 Z M 180.503906 211.628906 " clip-rule="nonzero"/></clipPath><clipPath id="16ea2c7430"><path d="M 180.503906 249.332031 L 587.496094 249.332031 L 587.496094 272.789062 L 180.503906 272.789062 Z M 180.503906 249.332031 " clip-rule="nonzero"/></clipPath></defs><path fill="#546e7a" d="M 0 343.578125 L 40.421875 343.578125 L 40.421875 424.421875 L 0 424.421875 Z M 0 343.578125 " fill-opacity="1" fill-rule="nonzero"/><path fill="#546e7a" d="M 727.578125 343.578125 L 768 343.578125 L 768 424.421875 L 727.578125 424.421875 Z M 727.578125 343.578125 " fill-opacity="1" fill-rule="nonzero"/><path fill="#37474f" d="M 40.421875 363.789062 L 727.578125 363.789062 L 727.578125 404.210938 L 40.421875 404.210938 Z M 40.421875 363.789062 " fill-opacity="1" fill-rule="nonzero"/><path fill="#ffc107" d="M 707.367188 282.949219 L 60.632812 282.949219 L 60.632812 687.15625 C 60.632812 731.742188 96.828125 768 141.472656 768 L 626.527344 768 C 671.171875 768 707.367188 731.742188 707.367188 687.15625 Z M 707.367188 282.949219 " fill-opacity="1" fill-rule="nonzero"/><path fill="#37474f" d="M 626.527344 666.949219 C 626.527344 689.261719 608.417969 707.367188 586.105469 707.367188 L 181.894531 707.367188 C 159.582031 707.367188 141.472656 689.261719 141.472656 666.949219 L 141.472656 525.472656 L 626.527344 525.472656 Z M 626.527344 666.949219 " fill-opacity="1" fill-rule="nonzero"/><path fill="#ffecb3" d="M 626.527344 525.472656 L 141.472656 525.472656 L 141.472656 485.050781 C 141.472656 485.050781 141.472656 464.84375 161.683594 464.84375 C 181.894531 464.84375 586.105469 464.84375 606.316406 464.84375 C 626.527344 464.84375 626.527344 485.050781 626.527344 485.050781 Z M 626.527344 525.472656 " fill-opacity="1" fill-rule="nonzero"/><path fill="#b0bec5" d="M 222.316406 586.105469 C 222.316406 586.765625 222.285156 587.425781 222.21875 588.085938 C 222.152344 588.746094 222.054688 589.398438 221.925781 590.046875 C 221.796875 590.699219 221.636719 591.339844 221.445312 591.972656 C 221.253906 592.605469 221.03125 593.226562 220.777344 593.839844 C 220.523438 594.449219 220.242188 595.046875 219.929688 595.632812 C 219.617188 596.214844 219.277344 596.78125 218.910156 597.332031 C 218.542969 597.882812 218.148438 598.414062 217.726562 598.925781 C 217.308594 599.4375 216.863281 599.929688 216.394531 600.394531 C 215.929688 600.863281 215.4375 601.308594 214.925781 601.726562 C 214.414062 602.148438 213.882812 602.542969 213.332031 602.910156 C 212.785156 603.277344 212.214844 603.617188 211.632812 603.929688 C 211.046875 604.242188 210.449219 604.523438 209.839844 604.777344 C 209.226562 605.03125 208.605469 605.253906 207.972656 605.445312 C 207.339844 605.636719 206.699219 605.796875 206.046875 605.925781 C 205.398438 606.054688 204.746094 606.152344 204.085938 606.21875 C 203.425781 606.285156 202.765625 606.316406 202.105469 606.316406 C 201.441406 606.316406 200.78125 606.285156 200.125 606.21875 C 199.464844 606.152344 198.8125 606.054688 198.164062 605.925781 C 197.511719 605.796875 196.871094 605.636719 196.238281 605.445312 C 195.605469 605.253906 194.984375 605.03125 194.371094 604.777344 C 193.757812 604.523438 193.160156 604.242188 192.578125 603.929688 C 191.996094 603.617188 191.425781 603.277344 190.875 602.910156 C 190.328125 602.542969 189.796875 602.148438 189.285156 601.726562 C 188.773438 601.308594 188.28125 600.863281 187.8125 600.394531 C 187.347656 599.929688 186.902344 599.4375 186.480469 598.925781 C 186.0625 598.414062 185.667969 597.882812 185.300781 597.332031 C 184.933594 596.78125 184.59375 596.214844 184.28125 595.632812 C 183.96875 595.046875 183.6875 594.449219 183.433594 593.839844 C 183.179688 593.226562 182.957031 592.605469 182.765625 591.972656 C 182.574219 591.339844 182.414062 590.699219 182.28125 590.046875 C 182.152344 589.398438 182.058594 588.746094 181.992188 588.085938 C 181.925781 587.425781 181.894531 586.765625 181.894531 586.105469 C 181.894531 585.445312 181.925781 584.78125 181.992188 584.125 C 182.058594 583.464844 182.152344 582.8125 182.28125 582.164062 C 182.414062 581.511719 182.574219 580.871094 182.765625 580.238281 C 182.957031 579.605469 183.179688 578.984375 183.433594 578.371094 C 183.6875 577.757812 183.96875 577.160156 184.28125 576.578125 C 184.59375 575.996094 184.933594 575.425781 185.300781 574.875 C 185.667969 574.328125 186.0625 573.796875 186.480469 573.285156 C 186.902344 572.773438 187.347656 572.28125 187.8125 571.8125 C 188.28125 571.347656 188.773438 570.902344 189.285156 570.480469 C 189.796875 570.0625 190.328125 569.667969 190.875 569.300781 C 191.425781 568.933594 191.996094 568.59375 192.578125 568.28125 C 193.160156 567.96875 193.757812 567.6875 194.371094 567.433594 C 194.984375 567.179688 195.605469 566.957031 196.238281 566.765625 C 196.871094 566.574219 197.511719 566.414062 198.164062 566.28125 C 198.8125 566.152344 199.464844 566.058594 200.125 565.992188 C 200.78125 565.925781 201.441406 565.894531 202.105469 565.894531 C 202.765625 565.894531 203.425781 565.925781 204.085938 565.992188 C 204.746094 566.058594 205.398438 566.152344 206.046875 566.28125 C 206.699219 566.414062 207.339844 566.574219 207.972656 566.765625 C 208.605469 566.957031 209.226562 567.179688 209.839844 567.433594 C 210.449219 567.6875 211.046875 567.96875 211.632812 568.28125 C 212.214844 568.59375 212.785156 568.933594 213.332031 569.300781 C 213.882812 569.667969 214.414062 570.0625 214.925781 570.480469 C 215.4375 570.902344 215.929688 571.347656 216.394531 571.8125 C 216.863281 572.28125 217.308594 572.773438 217.726562 573.285156 C 218.148438 573.796875 218.542969 574.328125 218.910156 574.875 C 219.277344 575.425781 219.617188 575.996094 219.929688 576.578125 C 220.242188 577.160156 220.523438 577.757812 220.777344 578.371094 C 221.03125 578.984375 221.253906 579.605469 221.445312 580.238281 C 221.636719 580.871094 221.796875 581.511719 221.925781 582.164062 C 222.054688 582.8125 222.152344 583.464844 222.21875 584.125 C 222.285156 584.78125 222.316406 585.445312 222.316406 586.105469 Z M 222.316406 586.105469 " fill-opacity="1" fill-rule="nonzero"/><path fill="#b0bec5" d="M 222.316406 646.738281 C 222.316406 647.398438 222.285156 648.058594 222.21875 648.71875 C 222.152344 649.375 222.054688 650.03125 221.925781 650.679688 C 221.796875 651.328125 221.636719 651.96875 221.445312 652.605469 C 221.253906 653.238281 221.03125 653.859375 220.777344 654.472656 C 220.523438 655.082031 220.242188 655.679688 219.929688 656.265625 C 219.617188 656.847656 219.277344 657.414062 218.910156 657.964844 C 218.542969 658.515625 218.148438 659.046875 217.726562 659.558594 C 217.308594 660.070312 216.863281 660.558594 216.394531 661.027344 C 215.929688 661.496094 215.4375 661.941406 214.925781 662.359375 C 214.414062 662.78125 213.882812 663.171875 213.332031 663.542969 C 212.785156 663.910156 212.214844 664.25 211.632812 664.5625 C 211.046875 664.871094 210.449219 665.15625 209.839844 665.410156 C 209.226562 665.660156 208.605469 665.886719 207.972656 666.078125 C 207.339844 666.269531 206.699219 666.429688 206.046875 666.558594 C 205.398438 666.6875 204.746094 666.785156 204.085938 666.851562 C 203.425781 666.914062 202.765625 666.949219 202.105469 666.949219 C 201.441406 666.949219 200.78125 666.914062 200.125 666.851562 C 199.464844 666.785156 198.8125 666.6875 198.164062 666.558594 C 197.511719 666.429688 196.871094 666.269531 196.238281 666.078125 C 195.605469 665.886719 194.984375 665.660156 194.371094 665.410156 C 193.757812 665.15625 193.160156 664.871094 192.578125 664.5625 C 191.996094 664.25 191.425781 663.910156 190.875 663.542969 C 190.328125 663.171875 189.796875 662.78125 189.285156 662.359375 C 188.773438 661.941406 188.28125 661.496094 187.8125 661.027344 C 187.347656 660.558594 186.902344 660.070312 186.480469 659.558594 C 186.0625 659.046875 185.667969 658.515625 185.300781 657.964844 C 184.933594 657.414062 184.59375 656.847656 184.28125 656.265625 C 183.96875 655.679688 183.6875 655.082031 183.433594 654.472656 C 183.179688 653.859375 182.957031 653.238281 182.765625 652.605469 C 182.574219 651.96875 182.414062 651.328125 182.28125 650.679688 C 182.152344 650.03125 182.058594 649.375 181.992188 648.71875 C 181.925781 648.058594 181.894531 647.398438 181.894531 646.738281 C 181.894531 646.074219 181.925781 645.414062 181.992188 644.753906 C 182.058594 644.097656 182.152344 643.441406 182.28125 642.792969 C 182.414062 642.144531 182.574219 641.503906 182.765625 640.871094 C 182.957031 640.238281 183.179688 639.613281 183.433594 639.003906 C 183.6875 638.390625 183.96875 637.792969 184.28125 637.210938 C 184.59375 636.625 184.933594 636.058594 185.300781 635.507812 C 185.667969 634.957031 186.0625 634.425781 186.480469 633.914062 C 186.902344 633.402344 187.347656 632.914062 187.8125 632.445312 C 188.28125 631.976562 188.773438 631.535156 189.285156 631.113281 C 189.796875 630.695312 190.328125 630.300781 190.875 629.933594 C 191.425781 629.566406 191.996094 629.226562 192.578125 628.914062 C 193.160156 628.601562 193.757812 628.316406 194.371094 628.066406 C 194.984375 627.8125 195.605469 627.589844 196.238281 627.398438 C 196.871094 627.203125 197.511719 627.042969 198.164062 626.914062 C 198.8125 626.785156 199.464844 626.6875 200.125 626.625 C 200.78125 626.558594 201.441406 626.527344 202.105469 626.527344 C 202.765625 626.527344 203.425781 626.558594 204.085938 626.625 C 204.746094 626.6875 205.398438 626.785156 206.046875 626.914062 C 206.699219 627.042969 207.339844 627.203125 207.972656 627.398438 C 208.605469 627.589844 209.226562 627.8125 209.839844 628.066406 C 210.449219 628.316406 211.046875 628.601562 211.632812 628.914062 C 212.214844 629.226562 212.785156 629.566406 213.332031 629.933594 C 213.882812 630.300781 214.414062 630.695312 214.925781 631.113281 C 215.4375 631.535156 215.929688 631.976562 216.394531 632.445312 C 216.863281 632.914062 217.308594 633.402344 217.726562 633.914062 C 218.148438 634.425781 218.542969 634.957031 218.910156 635.507812 C 219.277344 636.058594 219.617188 636.625 219.929688 637.210938 C 220.242188 637.792969 220.523438 638.390625 220.777344 639.003906 C 221.03125 639.613281 221.253906 640.238281 221.445312 640.871094 C 221.636719 641.503906 221.796875 642.144531 221.925781 642.792969 C 222.054688 643.441406 222.152344 644.097656 222.21875 644.753906 C 222.285156 645.414062 222.316406 646.074219 222.316406 646.738281 Z M 222.316406 646.738281 " fill-opacity="1" fill-rule="nonzero"/><path fill="#b0bec5" d="M 586.105469 586.105469 C 586.105469 586.765625 586.074219 587.425781 586.007812 588.085938 C 585.941406 588.746094 585.847656 589.398438 585.71875 590.046875 C 585.585938 590.699219 585.425781 591.339844 585.234375 591.972656 C 585.042969 592.605469 584.820312 593.226562 584.566406 593.839844 C 584.3125 594.449219 584.03125 595.046875 583.71875 595.632812 C 583.40625 596.214844 583.066406 596.78125 582.699219 597.332031 C 582.332031 597.882812 581.9375 598.414062 581.515625 598.925781 C 581.097656 599.4375 580.652344 599.929688 580.1875 600.394531 C 579.71875 600.863281 579.226562 601.308594 578.714844 601.726562 C 578.203125 602.148438 577.671875 602.542969 577.121094 602.910156 C 576.574219 603.277344 576.003906 603.617188 575.421875 603.929688 C 574.839844 604.242188 574.242188 604.523438 573.628906 604.777344 C 573.015625 605.03125 572.394531 605.253906 571.761719 605.445312 C 571.128906 605.636719 570.488281 605.796875 569.835938 605.925781 C 569.1875 606.054688 568.535156 606.152344 567.875 606.21875 C 567.21875 606.285156 566.558594 606.316406 565.894531 606.316406 C 565.234375 606.316406 564.574219 606.285156 563.914062 606.21875 C 563.253906 606.152344 562.601562 606.054688 561.953125 605.925781 C 561.300781 605.796875 560.660156 605.636719 560.027344 605.445312 C 559.394531 605.253906 558.773438 605.03125 558.160156 604.777344 C 557.550781 604.523438 556.953125 604.242188 556.367188 603.929688 C 555.785156 603.617188 555.214844 603.277344 554.667969 602.910156 C 554.117188 602.542969 553.585938 602.148438 553.074219 601.726562 C 552.5625 601.308594 552.070312 600.863281 551.605469 600.394531 C 551.136719 599.929688 550.691406 599.4375 550.273438 598.925781 C 549.851562 598.414062 549.457031 597.882812 549.089844 597.332031 C 548.722656 596.78125 548.382812 596.214844 548.070312 595.632812 C 547.757812 595.046875 547.476562 594.449219 547.222656 593.839844 C 546.96875 593.226562 546.746094 592.605469 546.554688 591.972656 C 546.363281 591.339844 546.203125 590.699219 546.074219 590.046875 C 545.945312 589.398438 545.847656 588.746094 545.78125 588.085938 C 545.714844 587.425781 545.683594 586.765625 545.683594 586.105469 C 545.683594 585.445312 545.714844 584.78125 545.78125 584.125 C 545.847656 583.464844 545.941406 582.8125 546.074219 582.164062 C 546.203125 581.511719 546.363281 580.871094 546.554688 580.238281 C 546.746094 579.605469 546.96875 578.984375 547.222656 578.371094 C 547.476562 577.757812 547.757812 577.160156 548.070312 576.578125 C 548.382812 575.996094 548.722656 575.425781 549.089844 574.875 C 549.457031 574.328125 549.851562 573.796875 550.273438 573.285156 C 550.691406 572.773438 551.136719 572.28125 551.605469 571.8125 C 552.070312 571.347656 552.5625 570.902344 553.074219 570.480469 C 553.585938 570.0625 554.117188 569.667969 554.667969 569.300781 C 555.214844 568.933594 555.785156 568.59375 556.367188 568.28125 C 556.953125 567.96875 557.550781 567.6875 558.160156 567.433594 C 558.773438 567.179688 559.394531 566.957031 560.027344 566.765625 C 560.660156 566.574219 561.300781 566.414062 561.953125 566.28125 C 562.601562 566.152344 563.253906 566.058594 563.914062 565.992188 C 564.574219 565.925781 565.234375 565.894531 565.894531 565.894531 C 566.558594 565.894531 567.21875 565.925781 567.875 565.992188 C 568.535156 566.058594 569.1875 566.152344 569.835938 566.28125 C 570.488281 566.414062 571.128906 566.574219 571.761719 566.765625 C 572.394531 566.957031 573.015625 567.179688 573.628906 567.433594 C 574.242188 567.6875 574.839844 567.96875 575.421875 568.28125 C 576.003906 568.59375 576.574219 568.933594 577.125 569.300781 C 577.671875 569.667969 578.203125 570.0625 578.714844 570.480469 C 579.226562 570.902344 579.71875 571.347656 580.1875 571.8125 C 580.652344 572.28125 581.097656 572.773438 581.515625 573.285156 C 581.9375 573.796875 582.332031 574.328125 582.699219 574.875 C 583.066406 575.425781 583.40625 575.996094 583.71875 576.578125 C 584.03125 577.160156 584.3125 577.757812 584.566406 578.371094 C 584.820312 578.984375 585.042969 579.605469 585.234375 580.238281 C 585.425781 580.871094 585.585938 581.511719 585.71875 582.164062 C 585.847656 582.8125 585.941406 583.464844 586.007812 584.125 C 586.074219 584.78125 586.105469 585.445312 586.105469 586.105469 Z M 586.105469 586.105469 " fill-opacity="1" fill-rule="nonzero"/><path fill="#b0bec5" d="M 586.105469 646.738281 C 586.105469 647.398438 586.074219 648.058594 586.007812 648.71875 C 585.941406 649.375 585.847656 650.03125 585.71875 650.679688 C 585.585938 651.328125 585.425781 651.96875 585.234375 652.605469 C 585.042969 653.238281 584.820312 653.859375 584.566406 654.472656 C 584.3125 655.082031 584.03125 655.679688 583.71875 656.265625 C 583.40625 656.847656 583.066406 657.414062 582.699219 657.964844 C 582.332031 658.515625 581.9375 659.046875 581.515625 659.558594 C 581.097656 660.070312 580.652344 660.558594 580.1875 661.027344 C 579.71875 661.496094 579.226562 661.941406 578.714844 662.359375 C 578.203125 662.78125 577.671875 663.171875 577.121094 663.542969 C 576.574219 663.910156 576.003906 664.25 575.421875 664.5625 C 574.839844 664.871094 574.242188 665.15625 573.628906 665.410156 C 573.015625 665.660156 572.394531 665.886719 571.761719 666.078125 C 571.128906 666.269531 570.488281 666.429688 569.835938 666.558594 C 569.1875 666.6875 568.535156 666.785156 567.875 666.851562 C 567.21875 666.914062 566.558594 666.949219 565.894531 666.949219 C 565.234375 666.949219 564.574219 666.914062 563.914062 666.851562 C 563.253906 666.785156 562.601562 666.6875 561.953125 666.558594 C 561.300781 666.429688 560.660156 666.269531 560.027344 666.078125 C 559.394531 665.886719 558.773438 665.660156 558.160156 665.410156 C 557.550781 665.15625 556.953125 664.871094 556.367188 664.5625 C 555.785156 664.25 555.214844 663.910156 554.667969 663.542969 C 554.117188 663.171875 553.585938 662.78125 553.074219 662.359375 C 552.5625 661.941406 552.070312 661.496094 551.605469 661.027344 C 551.136719 660.558594 550.691406 660.070312 550.273438 659.558594 C 549.851562 659.046875 549.457031 658.515625 549.089844 657.964844 C 548.722656 657.414062 548.382812 656.847656 548.070312 656.265625 C 547.757812 655.679688 547.476562 655.082031 547.222656 654.472656 C 546.96875 653.859375 546.746094 653.238281 546.554688 652.605469 C 546.363281 651.96875 546.203125 651.328125 546.074219 650.679688 C 545.945312 650.03125 545.847656 649.375 545.78125 648.71875 C 545.714844 648.058594 545.683594 647.398438 545.683594 646.738281 C 545.683594 646.074219 545.714844 645.414062 545.78125 644.753906 C 545.847656 644.097656 545.941406 643.441406 546.074219 642.792969 C 546.203125 642.144531 546.363281 641.503906 546.554688 640.871094 C 546.746094 640.238281 546.96875 639.613281 547.222656 639.003906 C 547.476562 638.390625 547.757812 637.792969 548.070312 637.210938 C 548.382812 636.625 548.722656 636.058594 549.089844 635.507812 C 549.457031 634.957031 549.851562 634.425781 550.273438 633.914062 C 550.691406 633.402344 551.136719 632.914062 551.605469 632.445312 C 552.070312 631.976562 552.5625 631.535156 553.074219 631.113281 C 553.585938 630.695312 554.117188 630.300781 554.667969 629.933594 C 555.214844 629.566406 555.785156 629.226562 556.367188 628.914062 C 556.953125 628.601562 557.550781 628.316406 558.160156 628.066406 C 558.773438 627.8125 559.394531 627.589844 560.027344 627.398438 C 560.660156 627.203125 561.300781 627.042969 561.953125 626.914062 C 562.601562 626.785156 563.253906 626.6875 563.914062 626.625 C 564.574219 626.558594 565.234375 626.527344 565.894531 626.527344 C 566.558594 626.527344 567.21875 626.558594 567.875 626.625 C 568.535156 626.6875 569.1875 626.785156 569.835938 626.914062 C 570.488281 627.042969 571.128906 627.203125 571.761719 627.398438 C 572.394531 627.589844 573.015625 627.8125 573.628906 628.066406 C 574.242188 628.316406 574.839844 628.601562 575.421875 628.914062 C 576.003906 629.226562 576.574219 629.566406 577.125 629.933594 C 577.671875 630.300781 578.203125 630.695312 578.714844 631.113281 C 579.226562 631.535156 579.71875 631.976562 580.1875 632.445312 C 580.652344 632.914062 581.097656 633.402344 581.515625 633.914062 C 581.9375 634.425781 582.332031 634.957031 582.699219 635.507812 C 583.066406 636.058594 583.40625 636.625 583.71875 637.210938 C 584.03125 637.792969 584.3125 638.390625 584.566406 639.003906 C 584.820312 639.613281 585.042969 640.238281 585.234375 640.871094 C 585.425781 641.503906 585.585938 642.144531 585.71875 642.792969 C 585.847656 643.441406 585.941406 644.097656 586.007812 644.753906 C 586.074219 645.414062 586.105469 646.074219 586.105469 646.738281 Z M 586.105469 646.738281 " fill-opacity="1" fill-rule="nonzero"/><path fill="#b0bec5" d="M 282.949219 586.105469 C 282.949219 586.765625 282.914062 587.425781 282.851562 588.085938 C 282.785156 588.746094 282.6875 589.398438 282.558594 590.046875 C 282.429688 590.699219 282.269531 591.339844 282.078125 591.972656 C 281.886719 592.605469 281.664062 593.226562 281.410156 593.839844 C 281.15625 594.449219 280.871094 595.046875 280.5625 595.632812 C 280.25 596.214844 279.910156 596.78125 279.542969 597.332031 C 279.171875 597.882812 278.78125 598.414062 278.359375 598.925781 C 277.941406 599.4375 277.496094 599.929688 277.027344 600.394531 C 276.558594 600.863281 276.070312 601.308594 275.558594 601.726562 C 275.046875 602.148438 274.515625 602.542969 273.964844 602.910156 C 273.414062 603.277344 272.847656 603.617188 272.265625 603.929688 C 271.679688 604.242188 271.082031 604.523438 270.472656 604.777344 C 269.859375 605.03125 269.238281 605.253906 268.605469 605.445312 C 267.96875 605.636719 267.328125 605.796875 266.679688 605.925781 C 266.03125 606.054688 265.375 606.152344 264.71875 606.21875 C 264.058594 606.285156 263.398438 606.316406 262.738281 606.316406 C 262.074219 606.316406 261.414062 606.285156 260.753906 606.21875 C 260.097656 606.152344 259.441406 606.054688 258.792969 605.925781 C 258.144531 605.796875 257.503906 605.636719 256.871094 605.445312 C 256.238281 605.253906 255.613281 605.03125 255.003906 604.777344 C 254.390625 604.523438 253.792969 604.242188 253.210938 603.929688 C 252.625 603.617188 252.058594 603.277344 251.507812 602.910156 C 250.957031 602.542969 250.425781 602.148438 249.914062 601.726562 C 249.402344 601.308594 248.914062 600.863281 248.445312 600.394531 C 247.976562 599.929688 247.535156 599.4375 247.113281 598.925781 C 246.695312 598.414062 246.300781 597.882812 245.933594 597.332031 C 245.566406 596.78125 245.226562 596.214844 244.914062 595.632812 C 244.601562 595.046875 244.316406 594.449219 244.066406 593.839844 C 243.8125 593.226562 243.589844 592.605469 243.398438 591.972656 C 243.203125 591.339844 243.042969 590.699219 242.914062 590.046875 C 242.785156 589.398438 242.6875 588.746094 242.625 588.085938 C 242.558594 587.425781 242.527344 586.765625 242.527344 586.105469 C 242.527344 585.445312 242.558594 584.78125 242.625 584.125 C 242.6875 583.464844 242.785156 582.8125 242.914062 582.164062 C 243.042969 581.511719 243.203125 580.871094 243.398438 580.238281 C 243.589844 579.605469 243.8125 578.984375 244.066406 578.371094 C 244.316406 577.757812 244.601562 577.160156 244.914062 576.578125 C 245.226562 575.996094 245.566406 575.425781 245.933594 574.875 C 246.300781 574.328125 246.695312 573.796875 247.113281 573.285156 C 247.535156 572.773438 247.976562 572.28125 248.445312 571.8125 C 248.914062 571.347656 249.402344 570.902344 249.914062 570.480469 C 250.425781 570.0625 250.957031 569.667969 251.507812 569.300781 C 252.058594 568.933594 252.625 568.59375 253.210938 568.28125 C 253.792969 567.96875 254.390625 567.6875 255.003906 567.433594 C 255.613281 567.179688 256.238281 566.957031 256.871094 566.765625 C 257.503906 566.574219 258.144531 566.414062 258.792969 566.28125 C 259.441406 566.152344 260.097656 566.058594 260.753906 565.992188 C 261.414062 565.925781 262.074219 565.894531 262.738281 565.894531 C 263.398438 565.894531 264.058594 565.925781 264.71875 565.992188 C 265.375 566.058594 266.03125 566.152344 266.679688 566.28125 C 267.328125 566.414062 267.96875 566.574219 268.605469 566.765625 C 269.238281 566.957031 269.859375 567.179688 270.472656 567.433594 C 271.082031 567.6875 271.679688 567.96875 272.265625 568.28125 C 272.847656 568.59375 273.414062 568.933594 273.964844 569.300781 C 274.515625 569.667969 275.046875 570.0625 275.558594 570.480469 C 276.070312 570.902344 276.558594 571.347656 277.027344 571.8125 C 277.496094 572.28125 277.941406 572.773438 278.359375 573.285156 C 278.78125 573.796875 279.171875 574.328125 279.542969 574.875 C 279.910156 575.425781 280.25 575.996094 280.5625 576.578125 C 280.871094 577.160156 281.15625 577.757812 281.410156 578.371094 C 281.664062 578.984375 281.886719 579.605469 282.078125 580.238281 C 282.269531 580.871094 282.429688 581.511719 282.558594 582.164062 C 282.6875 582.8125 282.785156 583.464844 282.851562 584.125 C 282.914062 584.78125 282.949219 585.445312 282.949219 586.105469 Z M 282.949219 586.105469 " fill-opacity="1" fill-rule="nonzero"/><path fill="#b0bec5" d="M 343.578125 586.105469 C 343.578125 586.765625 343.546875 587.425781 343.480469 588.085938 C 343.417969 588.746094 343.320312 589.398438 343.191406 590.046875 C 343.0625 590.699219 342.902344 591.339844 342.707031 591.972656 C 342.515625 592.605469 342.292969 593.226562 342.039062 593.839844 C 341.789062 594.449219 341.503906 595.046875 341.191406 595.632812 C 340.878906 596.214844 340.539062 596.78125 340.171875 597.332031 C 339.804688 597.882812 339.410156 598.414062 338.992188 598.925781 C 338.570312 599.4375 338.128906 599.929688 337.660156 600.394531 C 337.191406 600.863281 336.703125 601.308594 336.191406 601.726562 C 335.679688 602.148438 335.148438 602.542969 334.597656 602.910156 C 334.046875 603.277344 333.480469 603.617188 332.894531 603.929688 C 332.3125 604.242188 331.714844 604.523438 331.101562 604.777344 C 330.492188 605.03125 329.867188 605.253906 329.234375 605.445312 C 328.601562 605.636719 327.960938 605.796875 327.3125 605.925781 C 326.660156 606.054688 326.007812 606.152344 325.347656 606.21875 C 324.691406 606.285156 324.03125 606.316406 323.367188 606.316406 C 322.707031 606.316406 322.046875 606.285156 321.386719 606.21875 C 320.730469 606.152344 320.074219 606.054688 319.425781 605.925781 C 318.777344 605.796875 318.136719 605.636719 317.5 605.445312 C 316.867188 605.253906 316.246094 605.03125 315.632812 604.777344 C 315.023438 604.523438 314.425781 604.242188 313.839844 603.929688 C 313.257812 603.617188 312.691406 603.277344 312.140625 602.910156 C 311.589844 602.542969 311.058594 602.148438 310.546875 601.726562 C 310.035156 601.308594 309.546875 600.863281 309.078125 600.394531 C 308.609375 599.929688 308.164062 599.4375 307.746094 598.925781 C 307.324219 598.414062 306.933594 597.882812 306.5625 597.332031 C 306.195312 596.78125 305.855469 596.214844 305.542969 595.632812 C 305.230469 595.046875 304.949219 594.449219 304.695312 593.839844 C 304.441406 593.226562 304.21875 592.605469 304.027344 591.972656 C 303.835938 591.339844 303.675781 590.699219 303.546875 590.046875 C 303.417969 589.398438 303.320312 588.746094 303.253906 588.085938 C 303.191406 587.425781 303.15625 586.765625 303.15625 586.105469 C 303.15625 585.445312 303.191406 584.78125 303.253906 584.125 C 303.320312 583.464844 303.417969 582.8125 303.546875 582.164062 C 303.675781 581.511719 303.835938 580.871094 304.027344 580.238281 C 304.21875 579.605469 304.441406 578.984375 304.695312 578.371094 C 304.949219 577.757812 305.230469 577.160156 305.542969 576.578125 C 305.855469 575.996094 306.195312 575.425781 306.5625 574.875 C 306.933594 574.328125 307.324219 573.796875 307.746094 573.285156 C 308.164062 572.773438 308.609375 572.28125 309.078125 571.8125 C 309.546875 571.347656 310.035156 570.902344 310.546875 570.480469 C 311.058594 570.0625 311.589844 569.667969 312.140625 569.300781 C 312.691406 568.933594 313.257812 568.59375 313.839844 568.28125 C 314.425781 567.96875 315.023438 567.6875 315.632812 567.433594 C 316.246094 567.179688 316.867188 566.957031 317.5 566.765625 C 318.136719 566.574219 318.777344 566.414062 319.425781 566.28125 C 320.074219 566.152344 320.730469 566.058594 321.386719 565.992188 C 322.046875 565.925781 322.707031 565.894531 323.367188 565.894531 C 324.03125 565.894531 324.691406 565.925781 325.347656 565.992188 C 326.007812 566.058594 326.660156 566.152344 327.3125 566.28125 C 327.960938 566.414062 328.601562 566.574219 329.234375 566.765625 C 329.867188 566.957031 330.492188 567.179688 331.101562 567.433594 C 331.714844 567.6875 332.3125 567.96875 332.894531 568.28125 C 333.480469 568.59375 334.046875 568.933594 334.597656 569.300781 C 335.148438 569.667969 335.679688 570.0625 336.191406 570.480469 C 336.703125 570.902344 337.191406 571.347656 337.660156 571.8125 C 338.128906 572.28125 338.570312 572.773438 338.992188 573.285156 C 339.410156 573.796875 339.804688 574.328125 340.171875 574.875 C 340.539062 575.425781 340.878906 575.996094 341.191406 576.578125 C 341.503906 577.160156 341.789062 577.757812 342.039062 578.371094 C 342.292969 578.984375 342.515625 579.605469 342.707031 580.238281 C 342.902344 580.871094 343.0625 581.511719 343.191406 582.164062 C 343.320312 582.8125 343.417969 583.464844 343.480469 584.125 C 343.546875 584.78125 343.578125 585.445312 343.578125 586.105469 Z M 343.578125 586.105469 " fill-opacity="1" fill-rule="nonzero"/><path fill="#b0bec5" d="M 404.210938 586.105469 C 404.210938 586.765625 404.179688 587.425781 404.113281 588.085938 C 404.046875 588.746094 403.953125 589.398438 403.820312 590.046875 C 403.691406 590.699219 403.53125 591.339844 403.339844 591.972656 C 403.148438 592.605469 402.925781 593.226562 402.671875 593.839844 C 402.417969 594.449219 402.136719 595.046875 401.824219 595.632812 C 401.511719 596.214844 401.171875 596.78125 400.804688 597.332031 C 400.4375 597.882812 400.042969 598.414062 399.621094 598.925781 C 399.203125 599.4375 398.757812 599.929688 398.289062 600.394531 C 397.824219 600.863281 397.332031 601.308594 396.820312 601.726562 C 396.308594 602.148438 395.777344 602.542969 395.226562 602.910156 C 394.679688 603.277344 394.109375 603.617188 393.527344 603.929688 C 392.945312 604.242188 392.347656 604.523438 391.734375 604.777344 C 391.121094 605.03125 390.5 605.253906 389.867188 605.445312 C 389.234375 605.636719 388.59375 605.796875 387.941406 605.925781 C 387.292969 606.054688 386.640625 606.152344 385.980469 606.21875 C 385.320312 606.285156 384.660156 606.316406 384 606.316406 C 383.339844 606.316406 382.679688 606.285156 382.019531 606.21875 C 381.359375 606.152344 380.707031 606.054688 380.058594 605.925781 C 379.40625 605.796875 378.765625 605.636719 378.132812 605.445312 C 377.5 605.253906 376.878906 605.03125 376.265625 604.777344 C 375.652344 604.523438 375.054688 604.242188 374.472656 603.929688 C 373.890625 603.617188 373.320312 603.277344 372.773438 602.910156 C 372.222656 602.542969 371.691406 602.148438 371.179688 601.726562 C 370.667969 601.308594 370.175781 600.863281 369.707031 600.394531 C 369.242188 599.929688 368.796875 599.4375 368.378906 598.925781 C 367.957031 598.414062 367.5625 597.882812 367.195312 597.332031 C 366.828125 596.78125 366.488281 596.214844 366.175781 595.632812 C 365.863281 595.046875 365.582031 594.449219 365.328125 593.839844 C 365.074219 593.226562 364.851562 592.605469 364.660156 591.972656 C 364.46875 591.339844 364.308594 590.699219 364.179688 590.046875 C 364.046875 589.398438 363.953125 588.746094 363.886719 588.085938 C 363.820312 587.425781 363.789062 586.765625 363.789062 586.105469 C 363.789062 585.445312 363.820312 584.78125 363.886719 584.125 C 363.953125 583.464844 364.046875 582.8125 364.179688 582.164062 C 364.308594 581.511719 364.46875 580.871094 364.660156 580.238281 C 364.851562 579.605469 365.074219 578.984375 365.328125 578.371094 C 365.582031 577.757812 365.863281 577.160156 366.175781 576.578125 C 366.488281 575.996094 366.828125 575.425781 367.195312 574.875 C 367.5625 574.328125 367.957031 573.796875 368.378906 573.285156 C 368.796875 572.773438 369.242188 572.28125 369.707031 571.8125 C 370.175781 571.347656 370.667969 570.902344 371.179688 570.480469 C 371.691406 570.0625 372.222656 569.667969 372.773438 569.300781 C 373.320312 568.933594 373.890625 568.59375 374.472656 568.28125 C 375.054688 567.96875 375.652344 567.6875 376.265625 567.433594 C 376.878906 567.179688 377.5 566.957031 378.132812 566.765625 C 378.765625 566.574219 379.40625 566.414062 380.058594 566.28125 C 380.707031 566.152344 381.359375 566.058594 382.019531 565.992188 C 382.679688 565.925781 383.339844 565.894531 384 565.894531 C 384.660156 565.894531 385.320312 565.925781 385.980469 565.992188 C 386.640625 566.058594 387.292969 566.152344 387.941406 566.28125 C 388.59375 566.414062 389.234375 566.574219 389.867188 566.765625 C 390.5 566.957031 391.121094 567.179688 391.734375 567.433594 C 392.347656 567.6875 392.945312 567.96875 393.527344 568.28125 C 394.109375 568.59375 394.679688 568.933594 395.226562 569.300781 C 395.777344 569.667969 396.308594 570.0625 396.820312 570.480469 C 397.332031 570.902344 397.824219 571.347656 398.289062 571.8125 C 398.757812 572.28125 399.203125 572.773438 399.621094 573.285156 C 400.042969 573.796875 400.4375 574.328125 400.804688 574.875 C 401.171875 575.425781 401.511719 575.996094 401.824219 576.578125 C 402.136719 577.160156 402.417969 577.757812 402.671875 578.371094 C 402.925781 578.984375 403.148438 579.605469 403.339844 580.238281 C 403.53125 580.871094 403.691406 581.511719 403.820312 582.164062 C 403.953125 582.8125 404.046875 583.464844 404.113281 584.125 C 404.179688 584.78125 404.210938 585.445312 404.210938 586.105469 Z M 404.210938 586.105469 " fill-opacity="1" fill-rule="nonzero"/><path fill="#b0bec5" d="M 464.84375 586.105469 C 464.84375 586.765625 464.808594 587.425781 464.746094 588.085938 C 464.679688 588.746094 464.582031 589.398438 464.453125 590.046875 C 464.324219 590.699219 464.164062 591.339844 463.972656 591.972656 C 463.78125 592.605469 463.558594 593.226562 463.304688 593.839844 C 463.050781 594.449219 462.769531 595.046875 462.457031 595.632812 C 462.144531 596.214844 461.804688 596.78125 461.4375 597.332031 C 461.066406 597.882812 460.675781 598.414062 460.253906 598.925781 C 459.835938 599.4375 459.390625 599.929688 458.921875 600.394531 C 458.453125 600.863281 457.964844 601.308594 457.453125 601.726562 C 456.941406 602.148438 456.410156 602.542969 455.859375 602.910156 C 455.308594 603.277344 454.742188 603.617188 454.160156 603.929688 C 453.574219 604.242188 452.976562 604.523438 452.367188 604.777344 C 451.753906 605.03125 451.132812 605.253906 450.5 605.445312 C 449.863281 605.636719 449.222656 605.796875 448.574219 605.925781 C 447.925781 606.054688 447.269531 606.152344 446.613281 606.21875 C 445.953125 606.285156 445.292969 606.316406 444.632812 606.316406 C 443.96875 606.316406 443.308594 606.285156 442.652344 606.21875 C 441.992188 606.152344 441.335938 606.054688 440.6875 605.925781 C 440.039062 605.796875 439.398438 605.636719 438.765625 605.445312 C 438.132812 605.253906 437.507812 605.03125 436.898438 604.777344 C 436.285156 604.523438 435.6875 604.242188 435.105469 603.929688 C 434.519531 603.617188 433.953125 603.277344 433.402344 602.910156 C 432.851562 602.542969 432.320312 602.148438 431.808594 601.726562 C 431.296875 601.308594 430.808594 600.863281 430.339844 600.394531 C 429.871094 599.929688 429.429688 599.4375 429.007812 598.925781 C 428.589844 598.414062 428.195312 597.882812 427.828125 597.332031 C 427.460938 596.78125 427.121094 596.214844 426.808594 595.632812 C 426.496094 595.046875 426.210938 594.449219 425.960938 593.839844 C 425.707031 593.226562 425.484375 592.605469 425.292969 591.972656 C 425.097656 591.339844 424.9375 590.699219 424.808594 590.046875 C 424.679688 589.398438 424.582031 588.746094 424.519531 588.085938 C 424.453125 587.425781 424.421875 586.765625 424.421875 586.105469 C 424.421875 585.445312 424.453125 584.78125 424.519531 584.125 C 424.582031 583.464844 424.679688 582.8125 424.808594 582.164062 C 424.9375 581.511719 425.097656 580.871094 425.292969 580.238281 C 425.484375 579.605469 425.707031 578.984375 425.960938 578.371094 C 426.210938 577.757812 426.496094 577.160156 426.808594 576.578125 C 427.121094 575.996094 427.460938 575.425781 427.828125 574.875 C 428.195312 574.328125 428.589844 573.796875 429.007812 573.285156 C 429.429688 572.773438 429.871094 572.28125 430.339844 571.8125 C 430.808594 571.347656 431.296875 570.902344 431.808594 570.480469 C 432.320312 570.0625 432.851562 569.667969 433.402344 569.300781 C 433.953125 568.933594 434.519531 568.59375 435.105469 568.28125 C 435.6875 567.96875 436.285156 567.6875 436.898438 567.433594 C 437.507812 567.179688 438.132812 566.957031 438.765625 566.765625 C 439.398438 566.574219 440.039062 566.414062 440.6875 566.28125 C 441.335938 566.152344 441.992188 566.058594 442.652344 565.992188 C 443.308594 565.925781 443.96875 565.894531 444.632812 565.894531 C 445.292969 565.894531 445.953125 565.925781 446.613281 565.992188 C 447.269531 566.058594 447.925781 566.152344 448.574219 566.28125 C 449.222656 566.414062 449.863281 566.574219 450.5 566.765625 C 451.132812 566.957031 451.753906 567.179688 452.367188 567.433594 C 452.976562 567.6875 453.574219 567.96875 454.160156 568.28125 C 454.742188 568.59375 455.308594 568.933594 455.859375 569.300781 C 456.410156 569.667969 456.941406 570.0625 457.453125 570.480469 C 457.964844 570.902344 458.453125 571.347656 458.921875 571.8125 C 459.390625 572.28125 459.835938 572.773438 460.253906 573.285156 C 460.675781 573.796875 461.066406 574.328125 461.4375 574.875 C 461.804688 575.425781 462.144531 575.996094 462.457031 576.578125 C 462.769531 577.160156 463.050781 577.757812 463.304688 578.371094 C 463.558594 578.984375 463.78125 579.605469 463.972656 580.238281 C 464.164062 580.871094 464.324219 581.511719 464.453125 582.164062 C 464.582031 582.8125 464.679688 583.464844 464.746094 584.125 C 464.808594 584.78125 464.84375 585.445312 464.84375 586.105469 Z M 464.84375 586.105469 " fill-opacity="1" fill-rule="nonzero"/><path fill="#b0bec5" d="M 525.472656 586.105469 C 525.472656 586.765625 525.441406 587.425781 525.375 588.085938 C 525.3125 588.746094 525.214844 589.398438 525.085938 590.046875 C 524.957031 590.699219 524.796875 591.339844 524.601562 591.972656 C 524.410156 592.605469 524.1875 593.226562 523.933594 593.839844 C 523.683594 594.449219 523.398438 595.046875 523.085938 595.632812 C 522.773438 596.214844 522.433594 596.78125 522.066406 597.332031 C 521.699219 597.882812 521.304688 598.414062 520.886719 598.925781 C 520.464844 599.4375 520.023438 599.929688 519.554688 600.394531 C 519.085938 600.863281 518.597656 601.308594 518.085938 601.726562 C 517.574219 602.148438 517.042969 602.542969 516.492188 602.910156 C 515.941406 603.277344 515.375 603.617188 514.789062 603.929688 C 514.207031 604.242188 513.609375 604.523438 512.996094 604.777344 C 512.386719 605.03125 511.761719 605.253906 511.128906 605.445312 C 510.496094 605.636719 509.855469 605.796875 509.207031 605.925781 C 508.558594 606.054688 507.902344 606.152344 507.246094 606.21875 C 506.585938 606.285156 505.925781 606.316406 505.261719 606.316406 C 504.601562 606.316406 503.941406 606.285156 503.28125 606.21875 C 502.625 606.152344 501.96875 606.054688 501.320312 605.925781 C 500.671875 605.796875 500.03125 605.636719 499.394531 605.445312 C 498.761719 605.253906 498.140625 605.03125 497.527344 604.777344 C 496.917969 604.523438 496.320312 604.242188 495.734375 603.929688 C 495.152344 603.617188 494.585938 603.277344 494.035156 602.910156 C 493.484375 602.542969 492.953125 602.148438 492.441406 601.726562 C 491.929688 601.308594 491.441406 600.863281 490.972656 600.394531 C 490.503906 599.929688 490.058594 599.4375 489.640625 598.925781 C 489.21875 598.414062 488.828125 597.882812 488.457031 597.332031 C 488.089844 596.78125 487.75 596.214844 487.4375 595.632812 C 487.125 595.046875 486.84375 594.449219 486.589844 593.839844 C 486.335938 593.226562 486.113281 592.605469 485.921875 591.972656 C 485.730469 591.339844 485.570312 590.699219 485.441406 590.046875 C 485.3125 589.398438 485.214844 588.746094 485.148438 588.085938 C 485.085938 587.425781 485.050781 586.765625 485.050781 586.105469 C 485.050781 585.445312 485.085938 584.78125 485.148438 584.125 C 485.214844 583.464844 485.3125 582.8125 485.441406 582.164062 C 485.570312 581.511719 485.730469 580.871094 485.921875 580.238281 C 486.113281 579.605469 486.335938 578.984375 486.589844 578.371094 C 486.84375 577.757812 487.125 577.160156 487.4375 576.578125 C 487.75 575.996094 488.089844 575.425781 488.457031 574.875 C 488.828125 574.328125 489.21875 573.796875 489.640625 573.285156 C 490.058594 572.773438 490.503906 572.28125 490.972656 571.8125 C 491.441406 571.347656 491.929688 570.902344 492.441406 570.480469 C 492.953125 570.0625 493.484375 569.667969 494.035156 569.300781 C 494.585938 568.933594 495.152344 568.59375 495.734375 568.28125 C 496.320312 567.96875 496.917969 567.6875 497.527344 567.433594 C 498.140625 567.179688 498.761719 566.957031 499.394531 566.765625 C 500.03125 566.574219 500.671875 566.414062 501.320312 566.28125 C 501.96875 566.152344 502.625 566.058594 503.28125 565.992188 C 503.941406 565.925781 504.601562 565.894531 505.261719 565.894531 C 505.925781 565.894531 506.585938 565.925781 507.246094 565.992188 C 507.902344 566.058594 508.558594 566.152344 509.207031 566.28125 C 509.855469 566.414062 510.496094 566.574219 511.128906 566.765625 C 511.761719 566.957031 512.386719 567.179688 512.996094 567.433594 C 513.609375 567.6875 514.207031 567.96875 514.789062 568.28125 C 515.375 568.59375 515.941406 568.933594 516.492188 569.300781 C 517.042969 569.667969 517.574219 570.0625 518.085938 570.480469 C 518.597656 570.902344 519.085938 571.347656 519.554688 571.8125 C 520.023438 572.28125 520.464844 572.773438 520.886719 573.285156 C 521.304688 573.796875 521.699219 574.328125 522.066406 574.875 C 522.433594 575.425781 522.773438 575.996094 523.085938 576.578125 C 523.398438 577.160156 523.683594 577.757812 523.933594 578.371094 C 524.1875 578.984375 524.410156 579.605469 524.601562 580.238281 C 524.796875 580.871094 524.957031 581.511719 525.085938 582.164062 C 525.214844 582.8125 525.3125 583.464844 525.375 584.125 C 525.441406 584.78125 525.472656 585.445312 525.472656 586.105469 Z M 525.472656 586.105469 " fill-opacity="1" fill-rule="nonzero"/><path fill="#b0bec5" d="M 525.472656 646.738281 C 525.472656 657.914062 516.417969 666.949219 505.261719 666.949219 L 262.738281 666.949219 C 251.582031 666.949219 242.527344 657.914062 242.527344 646.738281 C 242.527344 635.558594 251.582031 626.527344 262.738281 626.527344 L 505.261719 626.527344 C 516.417969 626.527344 525.472656 635.558594 525.472656 646.738281 Z M 525.472656 646.738281 " fill-opacity="1" fill-rule="nonzero"/><path fill="#37474f" d="M 101.050781 282.949219 L 101.050781 303.15625 C 101.050781 325.46875 119.160156 343.578125 141.472656 343.578125 L 626.527344 343.578125 C 648.839844 343.578125 666.949219 325.46875 666.949219 303.15625 L 666.949219 282.949219 Z M 101.050781 282.949219 " fill-opacity="1" fill-rule="nonzero"/><path fill="#37474f" d="M 525.472656 343.578125 C 525.472656 388.164062 462.132812 424.421875 384 424.421875 C 305.867188 424.421875 242.527344 388.164062 242.527344 343.578125 C 242.527344 298.914062 305.867188 262.738281 384 262.738281 C 462.132812 262.738281 525.472656 298.914062 525.472656 343.578125 Z M 525.472656 343.578125 " fill-opacity="1" fill-rule="nonzero"/><path fill="#90caf9" d="M 141.472656 0 L 626.527344 0 L 626.527344 303.15625 L 141.472656 303.15625 Z M 141.472656 0 " fill-opacity="1" fill-rule="nonzero"/><path fill="#90caf9" d="M 444.632812 308.917969 C 444.632812 310.054688 444.535156 311.1875 444.339844 312.316406 C 444.144531 313.445312 443.855469 314.566406 443.464844 315.679688 C 443.078125 316.792969 442.597656 317.894531 442.019531 318.980469 C 441.445312 320.066406 440.777344 321.132812 440.015625 322.183594 C 439.257812 323.230469 438.410156 324.253906 437.472656 325.257812 C 436.535156 326.257812 435.515625 327.230469 434.414062 328.175781 C 433.308594 329.117188 432.128906 330.027344 430.867188 330.90625 C 429.609375 331.785156 428.277344 332.625 426.871094 333.425781 C 425.46875 334.230469 424 334.992188 422.464844 335.710938 C 420.929688 336.429688 419.335938 337.105469 417.683594 337.738281 C 416.035156 338.367188 414.332031 338.949219 412.582031 339.484375 C 410.832031 340.019531 409.039062 340.507812 407.203125 340.941406 C 405.367188 341.375 403.5 341.757812 401.601562 342.085938 C 399.699219 342.414062 397.777344 342.691406 395.828125 342.914062 C 393.882812 343.132812 391.917969 343.300781 389.941406 343.410156 C 387.964844 343.523438 385.984375 343.578125 384 343.578125 C 382.015625 343.578125 380.035156 343.523438 378.058594 343.410156 C 376.082031 343.300781 374.117188 343.132812 372.171875 342.914062 C 370.222656 342.691406 368.300781 342.414062 366.398438 342.085938 C 364.5 341.757812 362.632812 341.375 360.796875 340.941406 C 358.960938 340.507812 357.167969 340.019531 355.417969 339.484375 C 353.667969 338.949219 351.964844 338.367188 350.316406 337.738281 C 348.664062 337.105469 347.070312 336.429688 345.535156 335.710938 C 344 334.992188 342.53125 334.230469 341.128906 333.425781 C 339.722656 332.625 338.390625 331.785156 337.132812 330.90625 C 335.871094 330.027344 334.691406 329.117188 333.585938 328.175781 C 332.484375 327.230469 331.464844 326.257812 330.527344 325.257812 C 329.589844 324.253906 328.742188 323.230469 327.984375 322.183594 C 327.222656 321.132812 326.554688 320.066406 325.980469 318.980469 C 325.402344 317.894531 324.921875 316.792969 324.535156 315.679688 C 324.144531 314.566406 323.855469 313.445312 323.660156 312.316406 C 323.464844 311.1875 323.367188 310.054688 323.367188 308.917969 C 323.367188 307.78125 323.464844 306.648438 323.660156 305.519531 C 323.855469 304.390625 324.144531 303.269531 324.535156 302.15625 C 324.921875 301.042969 325.402344 299.941406 325.980469 298.855469 C 326.554688 297.769531 327.222656 296.703125 327.984375 295.652344 C 328.742188 294.605469 329.589844 293.578125 330.527344 292.578125 C 331.464844 291.578125 332.484375 290.605469 333.585938 289.660156 C 334.691406 288.71875 335.871094 287.808594 337.132812 286.929688 C 338.390625 286.050781 339.722656 285.210938 341.128906 284.410156 C 342.53125 283.605469 344 282.84375 345.535156 282.125 C 347.070312 281.40625 348.664062 280.730469 350.316406 280.097656 C 351.964844 279.46875 353.667969 278.882812 355.417969 278.347656 C 357.167969 277.8125 358.960938 277.328125 360.796875 276.894531 C 362.632812 276.460938 364.5 276.078125 366.398438 275.75 C 368.300781 275.417969 370.222656 275.144531 372.171875 274.921875 C 374.117188 274.703125 376.082031 274.535156 378.058594 274.421875 C 380.035156 274.3125 382.015625 274.257812 384 274.257812 C 385.984375 274.257812 387.964844 274.3125 389.941406 274.421875 C 391.917969 274.535156 393.882812 274.703125 395.828125 274.921875 C 397.777344 275.144531 399.699219 275.417969 401.601562 275.75 C 403.5 276.078125 405.367188 276.460938 407.203125 276.894531 C 409.039062 277.328125 410.832031 277.8125 412.582031 278.347656 C 414.332031 278.882812 416.035156 279.46875 417.683594 280.097656 C 419.335938 280.730469 420.929688 281.40625 422.464844 282.125 C 424 282.84375 425.46875 283.605469 426.871094 284.410156 C 428.277344 285.210938 429.609375 286.050781 430.867188 286.929688 C 432.128906 287.808594 433.308594 288.71875 434.414062 289.660156 C 435.515625 290.605469 436.535156 291.578125 437.472656 292.578125 C 438.410156 293.578125 439.257812 294.605469 440.015625 295.652344 C 440.777344 296.703125 441.445312 297.769531 442.019531 298.855469 C 442.597656 299.941406 443.078125 301.042969 443.464844 302.15625 C 443.855469 303.269531 444.144531 304.390625 444.339844 305.519531 C 444.535156 306.648438 444.632812 307.78125 444.632812 308.917969 Z M 444.632812 308.917969 " fill-opacity="1" fill-rule="nonzero"/><g clip-path="url(#81008d1892)"><path fill="#ffffff" d="M 180.6875 60.765625 L 510.414062 60.765625 L 510.414062 84.21875 L 180.6875 84.21875 Z M 180.6875 60.765625 " fill-opacity="1" fill-rule="nonzero"/></g><g fill="#000000" fill-opacity="1"><g transform="translate(518.299606, 149.726001)"><g><path d="M 4.027344 0 L 54.050781 0 C 54.980469 0 55.753906 -0.308594 56.527344 -2.167969 L 60.398438 -9.601562 C 62.101562 -13.007812 63.496094 -16.726562 63.496094 -21.0625 L 63.496094 -58.386719 C 63.496094 -70.15625 59.625 -75.730469 48.785156 -75.730469 L 14.867188 -75.730469 C 12.390625 -75.730469 11.613281 -76.503906 11.460938 -78.984375 L 11.152344 -81.769531 C 10.996094 -82.699219 10.53125 -83.011719 9.910156 -83.011719 C 9.292969 -83.011719 8.519531 -82.699219 8.519531 -81.769531 L 8.207031 -71.859375 C 7.898438 -65.046875 9.910156 -60.554688 16.261719 -60.554688 L 51.417969 -60.554688 C 57.457031 -60.554688 61.019531 -58.230469 61.019531 -49.867188 L 61.019531 -21.0625 C 61.019531 -16.878906 60.089844 -15.175781 56.527344 -15.175781 L 13.472656 -15.175781 C 12.855469 -15.175781 12.542969 -14.867188 12.234375 -14.402344 L 3.40625 -1.085938 C 2.941406 -0.621094 3.253906 0 4.027344 0 Z M 4.027344 0 "/></g></g></g><g clip-path="url(#e5303fbe4e)"><path fill="#ffffff" d="M 180.6875 98.519531 L 510.414062 98.519531 L 510.414062 121.972656 L 180.6875 121.972656 Z M 180.6875 98.519531 " fill-opacity="1" fill-rule="nonzero"/></g><g clip-path="url(#29136bc54b)"><path fill="#ffffff" d="M 180.6875 136.222656 L 510.414062 136.222656 L 510.414062 159.675781 L 180.6875 159.675781 Z M 180.6875 136.222656 " fill-opacity="1" fill-rule="nonzero"/></g><g clip-path="url(#3da40f7175)"><path fill="#ffffff" d="M 180.6875 173.925781 L 587.648438 173.925781 L 587.648438 197.378906 L 180.6875 197.378906 Z M 180.6875 173.925781 " fill-opacity="1" fill-rule="nonzero"/></g><g clip-path="url(#f270852ad3)"><path fill="#ffffff" d="M 180.503906 211.628906 L 587.464844 211.628906 L 587.464844 235.082031 L 180.503906 235.082031 Z M 180.503906 211.628906 " fill-opacity="1" fill-rule="nonzero"/></g><g clip-path="url(#16ea2c7430)"><path fill="#ffffff" d="M 180.503906 249.332031 L 587.464844 249.332031 L 587.464844 272.789062 L 180.503906 272.789062 Z M 180.503906 249.332031 " fill-opacity="1" fill-rule="nonzero"/></g></svg>