<?xml version="1.0" encoding="UTF-8" standalone="no"?>
<svg
   id="Layer_2"
   data-name="Layer 2"
   viewBox="0 0 128 128"
   version="1.1"
   xmlns="http://www.w3.org/2000/svg"
   xmlns:svg="http://www.w3.org/2000/svg">
  <defs
     id="defs2">
    <style
       id="style1">
      .cls-1 {
        fill: #90caf9;
      }

      .cls-2 {
        fill: #37474f;
      }

      .cls-3 {
        fill: #ffc107;
      }

      .cls-4 {
        fill: #fff;
      }

      .cls-5 {
        opacity: .25;
      }

      .cls-6 {
        fill: #e5aa17;
      }

      .cls-7 {
        filter: url(#drop-shadow-3);
      }
    </style>
    <filter
       id="drop-shadow-3"
       x="52.06"
       y="22.28"
       width="25.18"
       height="33.67"
       filterUnits="userSpaceOnUse">
      <feOffset
         dx=".1"
         dy="1"
         id="feOffset1" />
      <feGaussianBlur
         result="blur"
         stdDeviation="1"
         id="feGaussianBlur1" />
      <feFlood
         flood-color="#000"
         flood-opacity=".15"
         id="feFlood1" />
      <feComposite
         in2="blur"
         operator="in"
         id="feComposite1" />
      <feComposite
         in="SourceGraphic"
         id="feComposite2" />
    </filter>
  </defs>
  <rect
     class="cls-3"
     x="12.18"
     y="63.16"
     width="103.15"
     height="53.17"
     rx="8"
     ry="8"
     id="rect2" />
  <path
     class="cls-2"
     d="M24.51,63.16v5.68c0,4.4,3.6,8,8,8h15.21c-.1.26-.16.53-.16.8,0,3.27,7.25,5.92,16.2,5.92s16.2-2.65,16.2-5.92c0-.27-.07-.54-.16-.8h15.21c4.4,0,8-3.6,8-8v-5.68H24.51Z"
     id="path3" />
  <path
     class="cls-1"
     d="M89.43,16.37H31.71c-2.17,0-3.95,2.04-3.95,4.54v46.25h72V30.29"
     id="path4" />
  <path
     class="cls-1"
     d="M38.08,16.37h57.73c2.17,0,3.95,2.04,3.95,4.54v46.25H27.75V30.29"
     id="path5" />
  <ellipse
     class="cls-1"
     cx="63.83"
     cy="68.26"
     rx="10"
     ry="5.1"
     id="ellipse5" />
  <g
     id="g11">
    <circle
       class="cls-2"
       cx="27.75"
       cy="91.6"
       r="3.56"
       id="circle5" />
    <circle
       class="cls-2"
       cx="40.29"
       cy="91.6"
       r="3.56"
       id="circle6" />
    <circle
       class="cls-2"
       cx="52.84"
       cy="91.6"
       r="3.56"
       id="circle7" />
    <circle
       class="cls-2"
       cx="65.38"
       cy="91.6"
       r="3.56"
       id="circle8" />
    <circle
       class="cls-2"
       cx="77.92"
       cy="91.6"
       r="3.56"
       id="circle9" />
    <circle
       class="cls-2"
       cx="90.46"
       cy="91.6"
       r="3.56"
       id="circle10" />
    <circle
       class="cls-2"
       cx="103"
       cy="91.6"
       r="3.56"
       id="circle11" />
  </g>
  <g
     id="g13">
    <circle
       class="cls-2"
       cx="27.75"
       cy="103.2"
       r="3.56"
       id="circle12" />
    <circle
       class="cls-2"
       cx="103"
       cy="103.2"
       r="3.56"
       id="circle13" />
    <path
       class="cls-2"
       d="M90.46,99.64h0s-50.17,0-50.17,0h0c-4.62-.07-4.61,7.18,0,7.11h50.17c4.62.07,4.61-7.18,0-7.11Z"
       id="path13" />
  </g>
  <g
     class="cls-7"
     id="g14">
    <path
       class="cls-4"
       d="M52.41,55.95h20.89c.39,0,.71-.13,1.03-.91l1.62-3.1c.71-1.42,1.29-2.98,1.29-4.79v-15.59c0-4.92-1.62-7.24-6.14-7.24h-14.16c-1.03,0-1.13-.22-1.38-.96l-.17-.56c-.07-.39-.26-.52-.52-.52s-.58.13-.58.52l-.13,3.14c-.13,2.84.71,4.72,3.36,4.72h12.68c2.52,0,4.01.97,4.01,4.46v12.03c0,1.75-.39,2.46-1.88,2.46h-15.98c-4.29,1.84-4.2,5.88-4.2,5.88-.19.19-.06.45.26.45Z"
       id="path14" />
  </g>
</svg>
