<?xml version="1.0" encoding="UTF-8" standalone="no"?>
<svg
   id="Layer_2"
   data-name="Layer 2"
   viewBox="0 0 16384 16384"
   version="1.1"
   width="16384"
   height="16384"
   xmlns="http://www.w3.org/2000/svg"
   xmlns:svg="http://www.w3.org/2000/svg">
  <defs
     id="defs2">
    <style
       id="style1">
      .cls-1 {
        fill: #90caf9;
      }

      .cls-2 {
        fill: #37474f;
      }

      .cls-3 {
        fill: #ffc107;
      }

      .cls-4 {
        fill: #fff;
      }

      .cls-5 {
        opacity: .25;
      }

      .cls-6 {
        fill: #e5aa17;
      }

      .cls-7 {
        filter: url(#drop-shadow-3);
      }
    </style>
    <filter
       id="drop-shadow-3"
       x="52.060001"
       y="22.280001"
       width="25.18"
       height="33.669998"
       filterUnits="userSpaceOnUse">
      <feOffset
         dx=".1"
         dy="1"
         id="feOffset1" />
      <feGaussianBlur
         result="blur"
         stdDeviation="1"
         id="feGaussianBlur1" />
      <feFlood
         flood-color="#000"
         flood-opacity=".15"
         id="feFlood1" />
      <feComposite
         in2="blur"
         operator="in"
         id="feComposite1" />
      <feComposite
         in="SourceGraphic"
         id="feComposite2" />
    </filter>
  </defs>
  <rect
     class="cls-3"
     x="12.18"
     y="63.16"
     width="103.15"
     height="53.169998"
     rx="8"
     ry="8"
     id="rect2" />
  <path
     class="cls-2"
     d="m 24.51,63.16 v 5.68 c 0,4.4 3.6,8 8,8 h 15.21 c -0.1,0.26 -0.16,0.53 -0.16,0.8 0,3.27 7.25,5.92 16.2,5.92 8.95,0 16.2,-2.65 16.2,-5.92 0,-0.27 -0.07,-0.54 -0.16,-0.8 h 15.21 c 4.4,0 8,-3.6 8,-8 v -5.68 z"
     id="path3" />
  <path
     class="cls-1"
     d="M 89.43,16.37 H 31.71 c -2.17,0 -3.95,2.04 -3.95,4.54 v 46.25 h 72 V 30.29"
     id="path4" />
  <path
     class="cls-1"
     d="m 38.08,16.37 h 57.73 c 2.17,0 3.95,2.04 3.95,4.54 V 67.16 H 27.75 V 30.29"
     id="path5" />
  <ellipse
     class="cls-1"
     cx="63.830002"
     cy="68.260002"
     rx="10"
     ry="5.0999999"
     id="ellipse5" />
  <g
     id="g11">
    <circle
       class="cls-2"
       cx="27.75"
       cy="91.599998"
       r="3.5599999"
       id="circle5" />
    <circle
       class="cls-2"
       cx="40.290001"
       cy="91.599998"
       r="3.5599999"
       id="circle6" />
    <circle
       class="cls-2"
       cx="52.84"
       cy="91.599998"
       r="3.5599999"
       id="circle7" />
    <circle
       class="cls-2"
       cx="65.379997"
       cy="91.599998"
       r="3.5599999"
       id="circle8" />
    <circle
       class="cls-2"
       cx="77.919998"
       cy="91.599998"
       r="3.5599999"
       id="circle9" />
    <circle
       class="cls-2"
       cx="90.459999"
       cy="91.599998"
       r="3.5599999"
       id="circle10" />
    <circle
       class="cls-2"
       cx="103"
       cy="91.599998"
       r="3.5599999"
       id="circle11" />
  </g>
  <g
     id="g13">
    <circle
       class="cls-2"
       cx="27.75"
       cy="103.2"
       r="3.5599999"
       id="circle12" />
    <circle
       class="cls-2"
       cx="103"
       cy="103.2"
       r="3.5599999"
       id="circle13" />
    <path
       class="cls-2"
       d="m 90.46,99.64 v 0 c 0,0 -50.17,0 -50.17,0 v 0 c -4.62,-0.07 -4.61,7.18 0,7.11 h 50.17 c 4.62,0.07 4.61,-7.18 0,-7.11 z"
       id="path13" />
  </g>
  <g
     class="cls-7"
     id="g14">
    <path
       class="cls-4"
       d="M 52.41,55.95 H 73.3 c 0.39,0 0.71,-0.13 1.03,-0.91 l 1.62,-3.1 c 0.71,-1.42 1.29,-2.98 1.29,-4.79 V 31.56 c 0,-4.92 -1.62,-7.24 -6.14,-7.24 H 56.94 c -1.03,0 -1.13,-0.22 -1.38,-0.96 L 55.39,22.8 c -0.07,-0.39 -0.26,-0.52 -0.52,-0.52 -0.26,0 -0.58,0.13 -0.58,0.52 l -0.13,3.14 c -0.13,2.84 0.71,4.72 3.36,4.72 H 70.2 c 2.52,0 4.01,0.97 4.01,4.46 v 12.03 c 0,1.75 -0.39,2.46 -1.88,2.46 H 56.35 c -4.29,1.84 -4.2,5.88 -4.2,5.88 -0.19,0.19 -0.06,0.45 0.26,0.45 z"
       id="path14" />
  </g>
</svg>
